HIERARCHY
ROOT root
{
	OFFSET	0	13.1	24.9
	CHANNELS 6  Xposition Yposition Zposition Xrotation Yrotation Zrotation
	JOINT spine_1
	{
		OFFSET	0	9.99999	0
		CHANNELS 3  Xrotation Yrotation Zrotation
		JOINT spine_2
		{
			OFFSET	0	112	-10
			CHANNELS 3  Xrotation Yrotation Zrotation
			JOINT spine_3
			{
				OFFSET	0	206.5	19.3
				CHANNELS 3  Xrotation Yrotation Zrotation
				JOINT spine_4
				{
					OFFSET	0	110.4	14.6
					CHANNELS 3  Xrotation Yrotation Zrotation
					JOINT neck_1
					{
						OFFSET	0	71.8	-50.3
						CHANNELS 3  Xrotation Yrotation Zrotation
						JOINT neck_2
						{
							OFFSET	0	86.2	-25.8
							CHANNELS 3  Xrotation Yrotation Zrotation
							JOINT head_ee
							{
								OFFSET	0	179.8	-8.7
								CHANNELS 3  Xrotation Yrotation Zrotation
								End Site
								{
									OFFSET	1	0	0
								}
							}
						}
					}
					JOINT left_clavicle
					{
						OFFSET	-43.2	22.4	-70.8
						CHANNELS 3  Xrotation Yrotation Zrotation
						JOINT left_shoulder
						{
							OFFSET	-93.9	-5.79999	48.7
							CHANNELS 3  Xrotation Yrotation Zrotation
							JOINT left_elbow
							{
								OFFSET	-291.4	-30.8	15.2
								CHANNELS 3  Xrotation Yrotation Zrotation
								JOINT left_lowarm_twist
								{
									OFFSET	-110.7	-3.89999	13.6
									CHANNELS 3  Xrotation Yrotation Zrotation
									JOINT left_hand
									{
										OFFSET	-110.7	-3.89999	13.6
										CHANNELS 3  Xrotation Yrotation Zrotation
										JOINT left_ee
										{
											OFFSET	-80.8	-5.10001	12.1
											CHANNELS 3  Xrotation Yrotation Zrotation
											End Site
											{
												OFFSET	1	0	0
											}
										}
									}
								}
							}
						}
					}
					JOINT right_clavicle
					{
						OFFSET	43.2	22.4	-70.8
						CHANNELS 3  Xrotation Yrotation Zrotation
						JOINT right_shoulder
						{
							OFFSET	93.9	-5.79999	48.7
							CHANNELS 3  Xrotation Yrotation Zrotation
							JOINT right_elbow
							{
								OFFSET	291.4	-30.8	15.2
								CHANNELS 3  Xrotation Yrotation Zrotation
								JOINT right_lowarm_twist
								{
									OFFSET	110.7	-3.89999	13.6
									CHANNELS 3  Xrotation Yrotation Zrotation
									JOINT right_hand
									{
										OFFSET	110.7	-3.89999	13.6
										CHANNELS 3  Xrotation Yrotation Zrotation
										JOINT right_ee
										{
											OFFSET	80.8	-5.10001	12.1
											CHANNELS 3  Xrotation Yrotation Zrotation
											End Site
											{
												OFFSET	1	0	0
											}
										}
									}
								}
							}
						}
					}
				}
			}
		}
	}
	JOINT left_hip
	{
		OFFSET	-82.8	-127.5	0.300001
		CHANNELS 3  Xrotation Yrotation Zrotation
		JOINT left_knee
		{
			OFFSET	-28.2	-396.7	2.2
			CHANNELS 3  Xrotation Yrotation Zrotation
			JOINT left_ankle
			{
				OFFSET	-11.7	-411.3	35.4
				CHANNELS 3  Xrotation Yrotation Zrotation
				JOINT left_toes
				{
					OFFSET	0	-60	-88.6
					CHANNELS 3  Xrotation Yrotation Zrotation
					JOINT left_foot_ee
					{
						OFFSET	-22.5	-16.5	-42.2
						CHANNELS 3  Xrotation Yrotation Zrotation
						End Site
						{
							OFFSET	1	0	0
						}
					}
				}
			}
		}
	}
	JOINT right_hip
	{
		OFFSET	82.8	-127.5	0.300001
		CHANNELS 3  Xrotation Yrotation Zrotation
		JOINT right_knee
		{
			OFFSET	28.2	-396.7	2.2
			CHANNELS 3  Xrotation Yrotation Zrotation
			JOINT right_ankle
			{
				OFFSET	11.7	-411.3	35.4
				CHANNELS 3  Xrotation Yrotation Zrotation
				JOINT right_toes
				{
					OFFSET	0	-60	-88.6
					CHANNELS 3  Xrotation Yrotation Zrotation
					JOINT right_foot_ee
					{
						OFFSET	22.5	-16.5	-42.2
						CHANNELS 3  Xrotation Yrotation Zrotation
						End Site
						{
							OFFSET	1	0	0
						}
					}
				}
			}
		}
	}
}
MOTION
Frames: 8
Frame Time: 0.02
3491.32577173 724.117 -1516.72972415 -10.4820407573 52.9631103875 2.21088141958 3.10988 0.959888 3.84021 3.1178 0.713771 3.89339 3.16382 0.0988051 3.95695 3.14271 0.722013 3.89187 -7.42693 11.1929 -5.62406 -7.32647 24.8371 -3.26287 -0.0 0.0 -0.0 -6.63969 22.7946 -6.6697 -8.33434 -13.8882 67.6068 2.07576 -45.7931 0.876767 -34.4183 -2.37805 3.63165 -0.612571 -3.15173 -5.45935 -0.0 0.0 -0.0 13.1594 15.2642 -26.8653 -4.78544 3.6024 -67.8791 0.197238 5.58055 -0.00961297 14.6294 -0.281585 1.8425 0.566133 3.01524 -2.53062 0.0 0.0 0.0 11.453 29.9161 -3.5638 -14.2914 0.319953 2.16418 39.1258 -8.0036 -4.90756 -38.9112 0.0 0.0 -0.0 0.0 -0.0 7.2449 8.03985 3.49146 -20.1622 -0.293675 -3.06417 40.5147 2.77857 4.94602 -10.5311 0.0 0.0 0.0 0.0 0.0 
3492.93007429 724.117 -1519.76353871 -10.0026196894 50.8846900563 1.60195718237 3.10988 0.959888 3.84021 3.1178 0.713771 3.89339 3.16382 0.0988051 3.95695 3.14271 0.722013 3.89187 -7.42693 11.1929 -5.62406 -7.32647 24.8371 -3.26287 -0.0 0.0 -0.0 -6.63969 22.7946 -6.6697 -8.33434 -13.8882 67.6068 2.07576 -45.7931 0.876767 -34.4183 -2.37805 3.63165 -0.612571 -3.15173 -5.45935 -0.0 0.0 -0.0 13.1594 15.2642 -26.8653 -4.78544 3.6024 -67.8791 0.197238 5.58055 -0.00961297 14.6294 -0.281585 1.8425 0.566133 3.01524 -2.53062 0.0 0.0 0.0 11.453 29.9161 -3.5638 -14.2914 0.319953 2.16418 39.1258 -8.0036 -4.90756 -38.9112 0.0 0.0 -0.0 0.0 -0.0 7.2449 8.03985 3.49146 -20.1622 -0.293675 -3.06417 40.5147 2.77857 4.94602 -10.5311 0.0 0.0 0.0 0.0 0.0 
3482.07718097 727.734 -1514.00515083 -16.3150112004 60.4835970066 7.86834528583 3.29728 0.922072 3.72881 3.30475 0.683104 3.77982 3.34706 0.0984314 3.83971 3.32718 0.703169 3.77615 -8.84952 11.7993 -3.47464 -8.92381 24.5091 -0.644768 -0.0 0.0 -0.0 -6.09988 22.7707 -5.90396 -12.0344 -16.3916 67.8501 1.52295 -37.0293 0.510031 -33.9647 -2.33336 3.59437 -0.640909 -3.51649 -5.80884 -0.0 0.0 -0.0 13.6836 15.7878 -28.076 0.166924 5.00312 -68.2401 0.31769 8.94372 -0.0248458 14.9714 -0.282502 1.88617 0.574055 0.864868 -3.479 0.0 0.0 0.0 19.2821 26.4799 -5.72094 -20.5393 0.288838 3.12183 35.6098 -5.3955 -4.53848 -39.5255 0.0 0.0 -0.0 0.0 -0.0 6.5542 7.1858 3.48889 -15.08 -0.321787 -2.28516 39.6212 9.38241 4.9799 -6.63485 0.0 0.0 0.0 0.0 0.0 
3467.46728407 726.445 -1510.39999095 -19.2641739086 64.6207298708 11.230445329 3.38378 0.987943 3.62724 3.39078 0.755292 3.68265 3.43659 0.190636 3.75437 3.41778 0.780773 3.67734 -9.19092 11.6534 -2.41534 -9.30051 23.5267 0.438199 -0.0 0.0 -0.0 -6.29301 23.2072 -6.04926 -13.2261 -17.08 68.3308 1.20769 -30.889 0.333675 -33.5351 -2.29132 3.55876 -0.508871 -3.81255 -5.04448 -0.0 0.0 -0.0 13.8019 17.1968 -28.2952 2.09732 5.44376 -69.265 0.423299 11.843 -0.0439043 15.5912 -0.283499 1.96533 0.576295 0.169665 -3.7815 0.0 0.0 0.0 24.5276 23.7618 -6.75525 -24.2304 0.221485 3.68412 33.2528 -4.80724 -4.2983 -39.9183 0.0 0.0 -0.0 0.0 -0.0 5.79384 6.28789 3.66183 -13.6058 -0.317005 -2.05904 39.0861 10.7211 4.96381 -5.95074 0.0 0.0 0.0 0.0 0.0 
3451.67053021 724.715 -1505.78944246 -23.8264709956 69.3411324092 16.4465986744 3.63687 1.09027 3.5981 3.64366 0.859262 3.66007 3.69539 0.313998 3.74633 3.67694 0.901325 3.64995 -9.54485 11.6049 -2.11796 -9.67876 23.2525 0.793735 -0.0 0.0 -0.0 -6.41042 23.2509 -6.20249 -15.2838 -18.0564 68.1518 0.932377 -24.7905 0.20492 -33.2728 -2.26577 3.53685 -0.38257 -3.85351 -4.20938 -0.0 0.0 -0.0 13.5868 18.49 -27.7182 5.14884 6.18889 -69.9789 0.548268 15.1949 -0.0731304 16.056 -0.283686 2.0247 0.604746 -0.165343 -4.11008 0.0 0.0 0.0 29.5103 21.0109 -7.51698 -26.707 0.156043 4.05855 33.1295 -2.78836 -4.2606 -40.1022 0.0 0.0 -0.0 0.0 -0.0 3.91093 6.28226 3.32106 -12.9079 -0.312712 -1.95204 39.0332 12.5183 5.0056 -5.2733 0.0 0.0 0.0 0.0 0.0 
3451.22399427 724.715 -1503.96808257 -24.7719191741 70.1145803488 17.4544513041 3.63687 1.09027 3.5981 3.64366 0.859262 3.66007 3.69539 0.313998 3.74633 3.67694 0.901325 3.64995 -9.54485 11.6049 -2.11796 -9.67876 23.2525 0.793735 -0.0 0.0 -0.0 -6.41042 23.2509 -6.20249 -15.2838 -18.0564 68.1518 0.932377 -24.7905 0.20492 -33.2728 -2.26577 3.53685 -0.38257 -3.85351 -4.20938 -0.0 0.0 -0.0 13.5868 18.49 -27.7182 5.14884 6.18889 -69.9789 0.548268 15.1949 -0.0731304 16.056 -0.283686 2.0247 0.604746 -0.165343 -4.11008 0.0 0.0 0.0 29.5103 21.0109 -7.51698 -26.707 0.156043 4.05855 33.1295 -2.78836 -4.2606 -40.1022 0.0 0.0 -0.0 0.0 -0.0 3.91093 6.28226 3.32106 -12.9079 -0.312712 -1.95204 39.0332 12.5183 5.0056 -5.2733 0.0 0.0 0.0 0.0 0.0 
3441.9166087 722.805 -1499.67795573 -29.3800285947 72.4269793997 22.7705943462 3.74886 1.16422 3.56626 3.75545 0.935083 3.633 3.81147 0.400695 3.72982 3.79341 0.984336 3.61998 -10.1729 11.6569 -1.55779 -10.3503 23.0099 1.48741 -0.0 0.0 -0.0 -6.6757 24.008 -6.34207 -17.6745 -18.5861 68.5746 0.74388 -20.2286 0.132699 -33.0949 -2.24852 3.52194 -0.292628 -3.84031 -3.59703 -0.0 0.0 -0.0 13.4231 19.4449 -27.2729 7.72304 7.06774 -70.6286 0.682494 18.6798 -0.112252 16.4058 -0.283508 2.06937 0.653912 -0.0247259 -4.38142 0.0 0.0 0.0 32.6286 18.2519 -8.81111 -27.7603 0.123315 4.21687 33.7777 -1.29436 -4.31021 -40.0131 0.0 0.0 -0.0 0.0 -0.0 3.06818 5.4727 2.76035 -12.0 -0.305178 -1.81294 38.9623 13.2303 5.01926 -4.92894 0.0 0.0 0.0 0.0 0.0 
3431.00308509 720.927 -1495.42102502 -34.849066694 73.9051770236 28.4586041863 3.78514 1.20182 3.6095 3.79186 0.969864 3.67853 3.85071 0.431212 3.77958 3.83224 1.02232 3.66432 -10.1173 11.6255 -2.13103 -10.289 23.33 0.910108 -0.0 0.0 -0.0 -7.29339 23.8488 -7.26122 -19.1161 -19.4737 69.5043 0.628017 -17.2811 0.0954343 -32.7023 -2.21058 3.48882 0.0742803 -4.9667 -1.60384 -0.0 0.0 -0.0 13.2426 20.2856 -26.7908 9.61389 7.62922 -70.9537 0.86036 23.0834 -0.175697 16.2158 -0.283638 2.04511 0.796368 1.86305 -4.55909 0.0 0.0 0.0 35.1352 15.7925 -9.61707 -27.5376 0.130478 4.18344 34.0543 1.26738 -4.31841 -39.9479 0.0 0.0 -0.0 0.0 -0.0 2.40771 3.98077 2.63942 -10.0612 -0.281715 -1.5164 38.2172 12.4209 4.92914 -6.20221 0.0 0.0 0.0 0.0 0.0 
